<?xml version="1.0" standalone="no"?>
<svg xmlns:xlink="http://www.w3.org/1999/xlink" id="wave" style="transform:rotate(0deg); transition: 0.3s" viewBox="0 0 1440 140" version="1.1" xmlns="http://www.w3.org/2000/svg"><defs><linearGradient id="sw-gradient-0" x1="0" x2="0" y1="1" y2="0"><stop stop-color="rgba(11, 26, 66, 0.9647058823529412)" offset="0%"/><stop stop-color="rgba(11, 26, 66, 0.9647058823529412)" offset="100%"/></linearGradient></defs><path style="transform:translate(0, 0px); opacity:1" fill="url(#sw-gradient-0)" d="M0,42L48,35C96,28,192,14,288,28C384,42,480,84,576,100.3C672,117,768,107,864,86.3C960,65,1056,33,1152,37.3C1248,42,1344,84,1440,84C1536,84,1632,42,1728,37.3C1824,33,1920,65,2016,86.3C2112,107,2208,117,2304,119C2400,121,2496,117,2592,102.7C2688,89,2784,65,2880,53.7C2976,42,3072,42,3168,46.7C3264,51,3360,61,3456,72.3C3552,84,3648,98,3744,93.3C3840,89,3936,65,4032,49C4128,33,4224,23,4320,18.7C4416,14,4512,14,4608,14C4704,14,4800,14,4896,14C4992,14,5088,14,5184,14C5280,14,5376,14,5472,18.7C5568,23,5664,33,5760,37.3C5856,42,5952,42,6048,49C6144,56,6240,70,6336,63C6432,56,6528,28,6624,25.7C6720,23,6816,47,6864,58.3L6912,70L6912,140L6864,140C6816,140,6720,140,6624,140C6528,140,6432,140,6336,140C6240,140,6144,140,6048,140C5952,140,5856,140,5760,140C5664,140,5568,140,5472,140C5376,140,5280,140,5184,140C5088,140,4992,140,4896,140C4800,140,4704,140,4608,140C4512,140,4416,140,4320,140C4224,140,4128,140,4032,140C3936,140,3840,140,3744,140C3648,140,3552,140,3456,140C3360,140,3264,140,3168,140C3072,140,2976,140,2880,140C2784,140,2688,140,2592,140C2496,140,2400,140,2304,140C2208,140,2112,140,2016,140C1920,140,1824,140,1728,140C1632,140,1536,140,1440,140C1344,140,1248,140,1152,140C1056,140,960,140,864,140C768,140,672,140,576,140C480,140,384,140,288,140C192,140,96,140,48,140L0,140Z"/></svg>